<svg width="60" height="60" viewBox="0 0 60 60" fill="none" xmlns="http://www.w3.org/2000/svg">
<path d="M51.6039 17.2108L37.3715 2.97835C37.2526 2.85541 37.1098 2.7582 36.9519 2.69275C36.7939 2.62729 36.6242 2.59498 36.4533 2.59783H13.2065C11.8288 2.59783 10.5075 3.14514 9.53324 4.11935C8.55903 5.09357 8.01172 6.41489 8.01172 7.79263V52.2082C8.01172 53.586 8.55903 54.9073 9.53324 55.8815C10.5075 56.8557 11.8288 57.403 13.2065 57.403H46.7896C48.1674 57.403 49.4887 56.8557 50.4629 55.8815C51.4371 54.9073 51.9844 53.586 51.9844 52.2082V18.129C51.9834 17.7848 51.8467 17.4549 51.6039 17.2108ZM47.5507 16.8303H39.7C39.1834 16.8303 38.6879 16.6251 38.3225 16.2597C37.9572 15.8944 37.752 15.3989 37.752 14.8822V7.0316L47.5507 16.8303ZM46.7896 54.8056H13.2104C12.5215 54.8056 11.8609 54.532 11.3738 54.0449C10.8867 53.5578 10.613 52.8971 10.613 52.2082V7.79263C10.613 7.10376 10.8867 6.4431 11.3738 5.95599C11.8609 5.46889 12.5215 5.19523 13.2104 5.19523H35.1585V14.8822C35.1585 16.0878 35.6374 17.2439 36.4898 18.0964C37.3422 18.9488 38.4984 19.4277 39.7039 19.4277H49.3909V52.2082C49.3909 52.5496 49.3236 52.8877 49.1929 53.2031C49.0621 53.5185 48.8704 53.805 48.6288 54.0462C48.3872 54.2875 48.1004 54.4787 47.7848 54.609C47.4692 54.7393 47.1311 54.8061 46.7896 54.8056Z" fill="white"/>
<path d="M24.7832 22.5974C25.8235 22.5974 26.8404 22.2889 27.7053 21.7109C28.5703 21.133 29.2444 20.3115 29.6425 19.3504C30.0406 18.3893 30.1448 17.3318 29.9419 16.3115C29.7389 15.2912 29.238 14.354 28.5024 13.6184C27.7668 12.8828 26.8296 12.3819 25.8093 12.1789C24.789 11.976 23.7315 12.0802 22.7704 12.4783C21.8093 12.8764 20.9878 13.5505 20.4099 14.4155C19.8319 15.2804 19.5234 16.2973 19.5234 17.3376C19.5252 18.7321 20.0799 20.0689 21.0659 21.0549C22.0519 22.0409 23.3887 22.5956 24.7832 22.5974ZM24.7832 14.6753C25.3097 14.6753 25.8245 14.8314 26.2623 15.124C26.7001 15.4165 27.0414 15.8323 27.2429 16.3188C27.4444 16.8053 27.4971 17.3406 27.3944 17.857C27.2916 18.3735 27.0381 18.8478 26.6657 19.2202C26.2934 19.5925 25.819 19.8461 25.3026 19.9488C24.7861 20.0515 24.2508 19.9988 23.7643 19.7973C23.2779 19.5958 22.8621 19.2546 22.5695 18.8167C22.277 18.3789 22.1208 17.8642 22.1208 17.3376C22.1219 16.6318 22.4027 15.9553 22.9018 15.4562C23.4008 14.9571 24.0774 14.6763 24.7832 14.6753Z" fill="white"/>
<path d="M17.1698 32.6615C17.5142 32.6615 17.8446 32.5246 18.0881 32.2811C18.3317 32.0375 18.4685 31.7072 18.4685 31.3628V30.5705C18.4702 29.2946 18.9778 28.0714 19.8801 27.1691C20.7823 26.2669 22.0055 25.7593 23.2815 25.7576H26.2815C27.5574 25.7593 28.7806 26.2669 29.6829 27.1691C30.5851 28.0714 31.0928 29.2946 31.0945 30.5705V31.3628C31.0945 31.7072 31.2313 32.0375 31.4749 32.2811C31.7184 32.5246 32.0487 32.6615 32.3932 32.6615C32.7376 32.6615 33.0679 32.5246 33.3115 32.2811C33.555 32.0375 33.6919 31.7072 33.6919 31.3628V30.5705C33.6895 28.6059 32.908 26.7225 31.5188 25.3333C30.1296 23.9441 28.2461 23.1626 26.2815 23.1602H23.2815C21.3169 23.1626 19.4334 23.9441 18.0442 25.3333C16.655 26.7225 15.8735 28.6059 15.8711 30.5705V31.3628C15.8711 31.7072 16.0079 32.0375 16.2515 32.2811C16.495 32.5246 16.8254 32.6615 17.1698 32.6615Z" fill="white"/>
<path d="M16.4471 42.1658H32.2069C32.5513 42.1658 32.8816 42.0289 33.1252 41.7854C33.3688 41.5418 33.5056 41.2115 33.5056 40.8671C33.5056 40.5226 33.3688 40.1923 33.1252 39.9487C32.8816 39.7052 32.5513 39.5684 32.2069 39.5684H16.4471C16.1027 39.5684 15.7724 39.7052 15.5288 39.9487C15.2853 40.1923 15.1484 40.5226 15.1484 40.8671C15.1484 41.2115 15.2853 41.5418 15.5288 41.7854C15.7724 42.0289 16.1027 42.1658 16.4471 42.1658Z" fill="white"/>
<path d="M41.1225 46.4062H16.4471C16.1027 46.4062 15.7724 46.5431 15.5288 46.7866C15.2853 47.0302 15.1484 47.3605 15.1484 47.705C15.1484 48.0494 15.2853 48.3797 15.5288 48.6233C15.7724 48.8668 16.1027 49.0037 16.4471 49.0037H41.1225C41.4669 49.0037 41.7972 48.8668 42.0408 48.6233C42.2843 48.3797 42.4212 48.0494 42.4212 47.705C42.4212 47.3605 42.2843 47.0302 42.0408 46.7866C41.7972 46.5431 41.4669 46.4062 41.1225 46.4062Z" fill="white"/>
</svg>
