<svg width="63" height="63" viewBox="0 0 63 63" fill="none" xmlns="http://www.w3.org/2000/svg">
<path d="M24.8358 21.5527C27.2344 21.4899 29.5137 20.493 31.188 18.7743C32.8623 17.0556 33.7993 14.751 33.7993 12.3515C33.7993 9.9521 32.8623 7.64752 31.188 5.92881C29.5137 4.21011 27.2344 3.21316 24.8358 3.15039C22.3954 3.16991 20.0597 4.14414 18.3288 5.86448C16.5978 7.58482 15.6093 9.9145 15.5748 12.3547C15.5881 14.801 16.5701 17.1423 18.3058 18.8662C20.0415 20.5901 22.3895 21.5561 24.8358 21.5527ZM11.7759 49.6129L3.48506 57.91C3.27203 58.123 3.15234 58.412 3.15234 58.7132C3.15234 59.0145 3.27203 59.3035 3.48506 59.5165C3.6981 59.7295 3.98703 59.8492 4.28831 59.8492C4.58959 59.8492 4.87853 59.7295 5.09156 59.5165L13.3887 51.2194C13.5808 51.0016 13.6825 50.7186 13.6731 50.4283C13.6637 50.138 13.5439 49.8623 13.3381 49.6573C13.1324 49.4523 12.8561 49.3336 12.5658 49.3254C12.2755 49.3171 11.9929 49.4199 11.7759 49.6129ZM58.3959 20.2045L41.493 24.772C41.2972 24.8187 41.1182 24.9187 40.9757 25.0609C40.8333 25.2032 40.7331 25.3821 40.6861 25.5778C40.6391 25.7735 40.6473 25.9784 40.7096 26.1698C40.772 26.3611 40.8861 26.5315 41.0394 26.662L43.5594 29.182L38.7399 34.4614V31.4374C38.7399 26.7376 34.4937 20.3053 29.2899 22.5544C26.4249 23.7019 23.2326 23.7266 20.3502 22.6237C15.1401 20.3053 10.8309 26.7376 10.8309 31.4437V39.3754C10.8428 40.0094 11.0142 40.6303 11.329 41.1808C11.6439 41.7312 12.0922 42.1936 12.6327 42.5254L9.33146 45.9904C8.30456 47.0173 9.96146 48.5608 10.9443 47.5339L18.4035 39.6337L28.2441 47.6158C28.4683 47.798 28.7546 47.8861 29.0425 47.8614C29.3305 47.8368 29.5976 47.7013 29.7876 47.4835C35.1867 41.6308 40.5921 35.7781 45.9912 29.8435C46.185 29.6293 46.287 29.3475 46.2752 29.0589C46.2634 28.7702 46.1388 28.4977 45.9282 28.3L44.0004 26.3659L57.117 22.8253L53.6457 36.0301L51.9762 34.3606C51.7489 34.1685 51.458 34.0684 51.1607 34.08C50.8633 34.0917 50.5811 34.2142 50.3697 34.4236L28.6914 57.2044L20.01 49.9972C19.7865 49.8142 19.5007 49.725 19.2128 49.7486C18.9249 49.7721 18.6573 49.9064 18.4665 50.1232L12.6768 56.4925C11.6499 57.5887 13.3068 59.0692 14.3526 57.973L19.4304 52.4416L28.1118 59.5858C28.323 59.7686 28.5963 59.8633 28.8753 59.8504C29.1543 59.8375 29.4177 59.718 29.6112 59.5165L51.2202 36.8365L53.4063 39.0226C53.553 39.1582 53.7317 39.2544 53.9256 39.3023C54.1196 39.3503 54.3225 39.3484 54.5156 39.2969C54.7086 39.2453 54.8854 39.1457 55.0296 39.0075C55.1739 38.8692 55.2807 38.6967 55.3404 38.506L59.8512 21.5527C59.8977 21.3606 59.8929 21.1596 59.8373 20.9699C59.7816 20.7802 59.6771 20.6084 59.5341 20.4719C59.3912 20.3353 59.2149 20.2387 59.0228 20.1918C58.8308 20.1449 58.6298 20.1492 58.44 20.2045H58.3959ZM28.7859 45.2344L19.3359 37.5106V32.1304C19.3146 31.8467 19.1869 31.5815 18.9784 31.388C18.7698 31.1945 18.4958 31.0869 18.2113 31.0869C17.9268 31.0869 17.6528 31.1945 17.4443 31.388C17.2357 31.5815 17.108 31.8467 17.0868 32.1304V37.8004L14.1888 40.8874C13.2312 40.3204 13.0674 39.766 13.0674 39.3754V31.3996C13.0674 28.3756 15.8961 23.0962 19.4934 24.6397C22.9272 26.0342 26.7695 26.0342 30.2034 24.6397C33.744 23.0962 36.5034 28.3756 36.5034 31.3996V36.868L32.5155 41.1772V32.1304C32.5155 31.8288 32.3957 31.5396 32.1824 31.3263C31.9691 31.113 31.6799 30.9932 31.3783 30.9932C31.0767 30.9932 30.7875 31.113 30.5742 31.3263C30.361 31.5396 30.2412 31.8288 30.2412 32.1304V43.6279L28.7859 45.2344ZM24.8358 5.39949C26.1694 5.40124 27.4743 5.78779 28.5937 6.51275C29.7132 7.23772 30.5996 8.2703 31.1467 9.48659C31.6938 10.7029 31.8784 12.0512 31.6782 13.3698C31.478 14.6883 30.9015 15.9211 30.018 16.9202C29.1346 17.9193 27.9815 18.6422 26.6974 19.0022C25.4132 19.3622 24.0524 19.344 22.7783 18.9498C21.5042 18.5556 20.371 17.8022 19.5145 16.7798C18.658 15.7575 18.1148 14.5097 17.9499 13.1863C19.5816 13.5894 21.293 13.5326 22.8944 13.0221C24.4958 12.5117 25.9244 11.5676 27.0219 10.2946C27.9858 9.19839 26.247 7.71789 25.2831 8.81409C24.4141 9.84047 23.259 10.5846 21.9652 10.9516C20.6714 11.3185 19.2976 11.2916 18.0192 10.8742C18.3535 9.31743 19.2137 7.92329 20.4552 6.92624C21.6966 5.92919 23.2435 5.39005 24.8358 5.39949Z" fill="white"/>
</svg>
