<svg width="60" height="60" viewBox="0 0 60 60" fill="none" xmlns="http://www.w3.org/2000/svg">
<path d="M22.6444 33.7818C23.01 33.7818 23.3607 33.6365 23.6193 33.378C23.8778 33.1194 24.0231 32.7687 24.0231 32.4031V26.2653H37.1577V32.4031C37.163 32.7652 37.3107 33.1107 37.5686 33.3649C37.8266 33.619 38.1742 33.7615 38.5364 33.7615C38.8986 33.7615 39.2462 33.619 39.5042 33.3649C39.7622 33.1107 39.9098 32.7652 39.9152 32.4031V24.8866C39.9152 24.5209 39.7699 24.1702 39.5113 23.9117C39.2528 23.6531 38.9021 23.5078 38.5364 23.5078H22.6444C22.2787 23.5078 21.928 23.6531 21.6695 23.9117C21.4109 24.1702 21.2656 24.5209 21.2656 24.8866V32.4031C21.2656 32.7687 21.4109 33.1194 21.6695 33.378C21.928 33.6365 22.2787 33.7818 22.6444 33.7818Z" fill="white"/>
<path d="M16.4999 45.5201C16.8655 45.52 17.2162 45.3748 17.4748 45.1162C17.7333 44.8576 17.8786 44.507 17.8786 44.1413V38.0036H43.2967V44.1414C43.2979 44.5063 43.4436 44.8558 43.7021 45.1135C43.9605 45.3711 44.3105 45.5158 44.6755 45.5158C45.0404 45.5158 45.3904 45.3711 45.6489 45.1135C45.9073 44.8558 46.0531 44.5063 46.0542 44.1414V36.6248C46.0542 36.2592 45.9089 35.9085 45.6504 35.6499C45.3918 35.3914 45.0411 35.2461 44.6755 35.2461H16.4999C16.1342 35.2461 15.7835 35.3914 15.5249 35.6499C15.2664 35.9085 15.1211 36.2592 15.1211 36.6248V44.1414C15.1211 44.507 15.2664 44.8577 15.525 45.1162C15.7835 45.3748 16.1342 45.52 16.4999 45.5201Z" fill="white"/>
<path d="M9.61317 57.2597C9.97883 57.2596 10.3295 57.1144 10.5881 56.8558C10.8466 56.5973 10.9919 56.2466 10.9919 55.8809V49.7438H50.1828V55.8809C50.1828 56.2466 50.328 56.5973 50.5866 56.8558C50.8451 57.1144 51.1958 57.2597 51.5615 57.2597C51.9272 57.2597 52.2779 57.1144 52.5364 56.8558C52.795 56.5973 52.9403 56.2466 52.9403 55.8809V48.3651C52.9402 47.9994 52.795 47.6487 52.5364 47.3902C52.2779 47.1316 51.9272 46.9863 51.5615 46.9863H9.61317C9.2475 46.9863 8.89681 47.1316 8.63824 47.3902C8.37967 47.6487 8.23439 47.9994 8.23438 48.3651V55.8809C8.23439 56.2466 8.37967 56.5973 8.63824 56.8558C8.89681 57.1144 9.2475 57.2597 9.61317 57.2597Z" fill="white"/>
<path d="M25.2305 15.088L24.5035 19.8315C24.4645 20.0858 24.4975 20.3459 24.5986 20.5824C24.6997 20.8189 24.865 21.0224 25.0757 21.1699C25.2865 21.3174 25.5343 21.403 25.7911 21.4171C26.048 21.4311 26.3036 21.373 26.5292 21.2493L30.7361 18.9409L35.0239 21.0979C35.2536 21.2135 35.5112 21.2625 35.7673 21.2394C36.0235 21.2163 36.2681 21.122 36.4735 20.9672C36.6788 20.8123 36.8368 20.6031 36.9294 20.3631C37.0221 20.1232 37.0457 19.8621 36.9977 19.6094L36.1023 14.8948L39.4785 11.485C39.6595 11.3021 39.7857 11.0724 39.8429 10.8216C39.9001 10.5708 39.8861 10.309 39.8023 10.0658C39.7186 9.82254 39.5685 9.6076 39.3689 9.44522C39.1694 9.28284 38.9285 9.17949 38.6733 9.14686L33.913 8.54096L31.7123 4.27612C31.5944 4.04746 31.4149 3.85636 31.1941 3.72442C30.9732 3.59247 30.7199 3.52496 30.4627 3.52951C30.2055 3.53406 29.9547 3.6105 29.7386 3.75017C29.5226 3.88985 29.35 4.08718 29.2402 4.31987L27.193 8.6608L22.4576 9.435C22.2036 9.47639 21.9663 9.58805 21.7724 9.75733C21.5786 9.92661 21.4361 10.1468 21.3609 10.3929C21.2857 10.639 21.281 10.9012 21.3471 11.1499C21.4132 11.3986 21.5477 11.6238 21.7352 11.8L25.2305 15.088ZM28.3529 11.2648C28.5735 11.2288 28.7821 11.1397 28.9606 11.0052C29.1391 10.8707 29.2822 10.6948 29.3776 10.4926L30.5423 8.0226L31.7945 10.4496C31.8969 10.6482 32.0461 10.8189 32.2292 10.9471C32.4122 11.0753 32.6237 11.1571 32.8454 11.1854L35.5538 11.5301L33.6331 13.4696C33.4756 13.6284 33.3592 13.8231 33.2939 14.0369C33.2285 14.2507 33.2163 14.4773 33.2581 14.6969L33.7677 17.379L31.328 16.1524C31.1286 16.0514 30.9075 16.0006 30.684 16.0045C30.4605 16.0083 30.2413 16.0667 30.0455 16.1746L27.6522 17.4881L28.0656 14.7891C28.0994 14.5682 28.079 14.3423 28.0062 14.131C27.9334 13.9196 27.8103 13.7292 27.6475 13.576L25.6595 11.7058L28.3529 11.2648Z" fill="white"/>
</svg>
